HIERARCHY
ROOT Hips
{
    OFFSET   0.000000   0.000000   0.000000
    CHANNELS 6 Xposition Yposition Zposition Zrotation Xrotation Yrotation
    JOINT Chest
    {
        OFFSET   0.000000   8.007230   0.000000
        CHANNELS 3 Zrotation Xrotation Yrotation
        JOINT Chest2
        {
            OFFSET   0.000000  22.077100   0.000000
            CHANNELS 3 Zrotation Xrotation Yrotation
            JOINT Neck
            {
                OFFSET   0.000000  23.255100   0.000000
                CHANNELS 3 Zrotation Xrotation Yrotation
                JOINT Head
                {
                    OFFSET   0.000000  14.370100   1.956600
                    CHANNELS 3 Zrotation Xrotation Yrotation
                    End Site
                    {
                        OFFSET   0.000000  19.566000   0.000000
                    }
                }
            }
            JOINT LeftCollar
            {
                OFFSET   3.911900  19.017000  -0.467063
                CHANNELS 3 Zrotation Xrotation Yrotation
                JOINT LeftShoulder
                {
                    OFFSET  10.383700   0.000000   0.000000
                    CHANNELS 3 Zrotation Xrotation Yrotation
                    JOINT LeftElbow
                    {
                        OFFSET  26.662100   0.001193   0.000980
                        CHANNELS 3 Zrotation Xrotation Yrotation
                        JOINT LeftWrist
                        {
                            OFFSET  28.869000  -0.000059  -0.000082
                            CHANNELS 3 Zrotation Xrotation Yrotation
                            JOINT LeftFinger0
                            {
                                OFFSET   2.044650  -2.323450   3.252850
                                CHANNELS 3 Zrotation Xrotation Yrotation
                                JOINT LeftFinger01
                                {
                                    OFFSET   3.088130   0.000000   0.000000
                                    CHANNELS 3 Zrotation Xrotation Yrotation
                                    JOINT LeftFinger02
                                    {
                                        OFFSET   2.639460   0.000000   0.000000
                                        CHANNELS 3 Zrotation Xrotation Yrotation
                                        End Site
                                        {
                                            OFFSET   2.582190   0.000000   0.000000
                                        }
                                    }
                                }
                            }
                            JOINT LeftFinger1
                            {
                                OFFSET   8.364480   0.000000   3.252850
                                CHANNELS 3 Zrotation Xrotation Yrotation
                                JOINT LeftFinger11
                                {
                                    OFFSET   4.646930   0.000000   0.000000
                                    CHANNELS 3 Zrotation Xrotation Yrotation
                                    JOINT LeftFinger12
                                    {
                                        OFFSET   2.323470   0.000000   0.000000
                                        CHANNELS 3 Zrotation Xrotation Yrotation
                                        End Site
                                        {
                                            OFFSET   2.273050   0.000000   0.000000
                                        }
                                    }
                                }
                            }
                            JOINT LeftFinger2
                            {
                                OFFSET   8.364490   0.000016   1.078090
                                CHANNELS 3 Zrotation Xrotation Yrotation
                                JOINT LeftFinger21
                                {
                                    OFFSET   5.111610   0.000000   0.000000
                                    CHANNELS 3 Zrotation Xrotation Yrotation
                                    JOINT LeftFinger22
                                    {
                                        OFFSET   2.788150   0.000016   0.000000
                                        CHANNELS 3 Zrotation Xrotation Yrotation
                                        End Site
                                        {
                                            OFFSET   2.727660   0.000000   0.000000
                                        }
                                    }
                                }
                            }
                            JOINT LeftFinger3
                            {
                                OFFSET   7.899780   0.000015  -1.078090
                                CHANNELS 3 Zrotation Xrotation Yrotation
                                JOINT LeftFinger31
                                {
                                    OFFSET   4.646930   0.000000   0.000000
                                    CHANNELS 3 Zrotation Xrotation Yrotation
                                    JOINT LeftFinger32
                                    {
                                        OFFSET   2.323470   0.000000   0.000000
                                        CHANNELS 3 Zrotation Xrotation Yrotation
                                        End Site
                                        {
                                            OFFSET   2.273050   0.000000   0.000000
                                        }
                                    }
                                }
                            }
                            JOINT LeftFinger4
                            {
                                OFFSET   7.435090   0.000000  -3.252850
                                CHANNELS 3 Zrotation Xrotation Yrotation
                                JOINT LeftFinger41
                                {
                                    OFFSET   3.717550   0.000000   0.000000
                                    CHANNELS 3 Zrotation Xrotation Yrotation
                                    JOINT LeftFinger42
                                    {
                                        OFFSET   1.858770   0.000000   0.000000
                                        CHANNELS 3 Zrotation Xrotation Yrotation
                                        End Site
                                        {
                                            OFFSET   1.818440   0.000000   0.000000
                                        }
                                    }
                                }
                            }
                        }
                    }
                }
            }
            JOINT RightCollar
            {
                OFFSET  -3.911910  19.017000  -0.467062
                CHANNELS 3 Zrotation Xrotation Yrotation
                JOINT RightShoulder
                {
                    OFFSET -10.383700   0.000014   0.000000
                    CHANNELS 3 Zrotation Xrotation Yrotation
                    JOINT RightElbow
                    {
                        OFFSET -26.662100   0.001225   0.001091
                        CHANNELS 3 Zrotation Xrotation Yrotation
                        JOINT RightWrist
                        {
                            OFFSET -28.869000  -0.000020  -0.000085
                            CHANNELS 3 Zrotation Xrotation Yrotation
                            JOINT RightFinger0
                            {
                                OFFSET  -2.044650  -2.323490   3.252850
                                CHANNELS 3 Zrotation Xrotation Yrotation
                                JOINT RightFinger01
                                {
                                    OFFSET  -3.088130   0.000000   0.000000
                                    CHANNELS 3 Zrotation Xrotation Yrotation
                                    JOINT RightFinger02
                                    {
                                        OFFSET  -2.639460   0.000000   0.000000
                                        CHANNELS 3 Zrotation Xrotation Yrotation
                                        End Site
                                        {
                                            OFFSET  -2.582190   0.000000   0.000000
                                        }
                                    }
                                }
                            }
                            JOINT RightFinger1
                            {
                                OFFSET  -8.364480   0.000000   3.252850
                                CHANNELS 3 Zrotation Xrotation Yrotation
                                JOINT RightFinger11
                                {
                                    OFFSET  -4.646930   0.000000   0.000000
                                    CHANNELS 3 Zrotation Xrotation Yrotation
                                    JOINT RightFinger12
                                    {
                                        OFFSET  -2.323470   0.000000   0.000000
                                        CHANNELS 3 Zrotation Xrotation Yrotation
                                        End Site
                                        {
                                            OFFSET  -2.273050   0.000000   0.000000
                                        }
                                    }
                                }
                            }
                            JOINT RightFinger2
                            {
                                OFFSET  -8.364480   0.000000   1.078090
                                CHANNELS 3 Zrotation Xrotation Yrotation
                                JOINT RightFinger21
                                {
                                    OFFSET  -5.111620   0.000000   0.000000
                                    CHANNELS 3 Zrotation Xrotation Yrotation
                                    JOINT RightFinger22
                                    {
                                        OFFSET  -2.788160   0.000000   0.000000
                                        CHANNELS 3 Zrotation Xrotation Yrotation
                                        End Site
                                        {
                                            OFFSET  -2.727660   0.000000   0.000000
                                        }
                                    }
                                }
                            }
                            JOINT RightFinger3
                            {
                                OFFSET  -7.899780   0.000000  -1.078090
                                CHANNELS 3 Zrotation Xrotation Yrotation
                                JOINT RightFinger31
                                {
                                    OFFSET  -4.646930   0.000000   0.000000
                                    CHANNELS 3 Zrotation Xrotation Yrotation
                                    JOINT RightFinger32
                                    {
                                        OFFSET  -2.323470   0.000000   0.000000
                                        CHANNELS 3 Zrotation Xrotation Yrotation
                                        End Site
                                        {
                                            OFFSET  -2.273050   0.000000   0.000000
                                        }
                                    }
                                }
                            }
                            JOINT RightFinger4
                            {
                                OFFSET  -7.435090   0.000000  -3.252850
                                CHANNELS 3 Zrotation Xrotation Yrotation
                                JOINT RightFinger41
                                {
                                    OFFSET  -3.717550   0.000000   0.000000
                                    CHANNELS 3 Zrotation Xrotation Yrotation
                                    JOINT RightFinger42
                                    {
                                        OFFSET  -1.858760   0.000000   0.000000
                                        CHANNELS 3 Zrotation Xrotation Yrotation
                                        End Site
                                        {
                                            OFFSET  -1.818440   0.000000   0.000000
                                        }
                                    }
                                }
                            }
                        }
                    }
                }
            }
        }
    }
    JOINT LeftHip
    {
        OFFSET   9.783030   0.000000   0.000000
        CHANNELS 3 Zrotation Xrotation Yrotation
        JOINT LeftKnee
        {
            OFFSET   0.000063 -41.789100   0.000608
            CHANNELS 3 Zrotation Xrotation Yrotation
            JOINT LeftAnkle
            {
                OFFSET   0.000048 -41.133200  -0.000184
                CHANNELS 3 Zrotation Xrotation Yrotation
                JOINT LeftToe
                {
                    OFFSET   0.000000  -6.358960  14.674500
                    CHANNELS 3 Zrotation Xrotation Yrotation
                    End Site
                    {
                        OFFSET   0.000000   0.000000   3.913200
                    }
                }
            }
        }
    }
    JOINT RightHip
    {
        OFFSET  -9.783030   0.000000   0.000000
        CHANNELS 3 Zrotation Xrotation Yrotation
        JOINT RightKnee
        {
            OFFSET   0.000071 -41.789100   0.001239
            CHANNELS 3 Zrotation Xrotation Yrotation
            JOINT RightAnkle
            {
                OFFSET   0.000037 -41.133200  -0.000166
                CHANNELS 3 Zrotation Xrotation Yrotation
                JOINT RightToe
                {
                    OFFSET   0.000000  -6.358960  14.674500
                    CHANNELS 3 Zrotation Xrotation Yrotation
                    End Site
                    {
                        OFFSET   0.000000   0.000000   3.913200
                    }
                }
            }
        }
    }
}
MOTION
Frames: 6
Frame Time:   0.016667
  0.534194  89.601400  -0.350720  -2.219510  -6.382400  -2.833940   0.690661   3.291570   1.120840   1.319870   6.595850   2.207270   1.382460   0.273921  -0.010356   2.271270   0.554634  -0.607444  -4.399520  -0.383980   1.228540 -74.984100  17.436400  -1.260790  -2.179280  -3.603440 -12.984400  13.856100 -13.183700   9.633300  39.610100  33.709300 -63.324900 -31.784700  -0.003581   0.001530 -10.893400   0.000249  -0.014267 -25.948600   5.515910 -11.173700 -21.664900  -0.001913   0.001749 -15.167700  -0.003813   0.000738 -27.310200   0.602618  -1.183750 -28.351700  -0.006652   0.004553 -18.882200  -0.001160  -0.000648 -27.045300   0.597119  -1.186630 -27.190500  -0.001870  -0.001407 -18.102000  -0.001491  -0.002717 -27.365800   0.612517  -1.183190 -41.058200  -0.002881  -0.002345 -27.344800  -0.003166   0.001356   9.661840   1.307900   3.095220  70.358300   8.716350  -4.328760  -0.617338  -5.828230  10.537300 -11.443600  -6.943150  -3.996690 -34.336900  26.122500  60.111200  33.905900  -0.002767  -0.006206  11.952900  -0.002008  -0.004606  28.695400   8.035210  14.325100  24.305600   0.000000  -0.003101  17.020800  -0.001070  -0.001959  28.106600   1.813500   3.391570  33.073500  -0.003676  -0.007915  22.027000  -0.001994  -0.003268  28.109100   1.813720   3.391450  33.101200  -0.006026  -0.001340  22.045400  -0.004542  -0.002868  35.819300   0.048114   0.066695  53.729000  -0.005964  -0.001991  35.783600  -0.004002   0.009180   1.640430   8.445020   3.057920   1.076080   0.133698   7.179970  -2.094700  -2.574740   3.033870  -0.000000   0.000000   0.000000   1.868520   7.287010  -5.166860  -0.212447   1.849280  -6.787770  -0.627843  -3.650050  -0.681627   0.000000   0.000000   0.000000
  0.527039  89.601300  -0.351999  -2.213130  -6.392890  -2.773320   0.681214   3.301710   1.127990   1.300340   6.616020   2.221960   1.390460   0.273880  -0.010344   2.284410   0.554412  -0.570181  -4.387440  -0.401729   1.239670 -74.972000  17.454600  -1.261540  -2.180050  -3.619880 -12.974700  13.861400 -13.185200   9.641640  39.609300  33.707000 -63.309900 -31.784800  -0.003582   0.001536 -10.893400   0.000256  -0.014275 -25.946000   5.516020 -11.174300 -21.665300  -0.001912   0.001753 -15.167700  -0.003810   0.000740 -27.309800   0.603060  -1.178770 -28.341400  -0.006650   0.004559 -18.875400  -0.001159  -0.000643 -27.045300   0.597557  -1.181630 -27.185300  -0.001867  -0.001406 -18.102000  -0.001487  -0.002714 -27.354100   0.609683  -1.178320 -41.040500  -0.002881  -0.002345 -27.333000  -0.003168   0.001358   9.696090   1.282910   3.121140  70.353500   8.797270  -4.332250  -0.615447  -5.843760  10.539800 -11.398900  -6.919230  -3.991500 -34.352100  26.179400  60.204100  33.889200  -0.002772  -0.006193  11.944600  -0.002010  -0.004617  28.693400   8.038540  14.330000  24.304900   0.000000  -0.003096  17.019000  -0.001076  -0.001932  28.104700   1.829090   3.420510  33.082300  -0.003683  -0.007903  22.032800  -0.001986  -0.003262  28.107300   1.829280   3.420410  33.105700  -0.006022  -0.001295  22.048400  -0.004526  -0.002862  35.823800   0.048162   0.066760  53.735900  -0.005962  -0.001987  35.788100  -0.003999   0.009176   1.647440   8.442420   3.058060   1.074940   0.143884   7.158530  -2.101360  -2.566960   2.992260   0.000000   0.000000  -0.000000   1.872750   7.296730  -5.188220  -0.205246   1.852430  -6.827130  -0.636879  -3.656690  -0.682884  -0.000000   0.000000  -0.000000
  0.514271  89.601300  -0.354915  -2.202510  -6.413580  -2.671290   0.664781   3.319780   1.137500   1.266500   6.651930   2.241960   1.405670   0.273762  -0.010317   2.309400   0.553998  -0.502207  -4.366090  -0.431241   1.272850 -74.951500  17.496700  -1.266210  -2.180570  -3.653400 -12.959400  13.871500 -13.189200   9.653480  39.608500  33.704800 -63.294900 -31.784900  -0.003583   0.001545 -10.893300   0.000267  -0.014287 -25.943000   5.516820 -11.178200 -21.668100  -0.001903   0.001758 -15.167700  -0.003806   0.000745 -27.309500   0.606143  -1.173800 -28.331200  -0.006643   0.004575 -18.868500  -0.001157  -0.000629 -27.045100   0.600620  -1.176640 -27.180100  -0.001858  -0.001406 -18.102000  -0.001479  -0.002705 -27.342400   0.606850  -1.173440 -41.022900  -0.002880  -0.002345 -27.321300  -0.003172   0.001364   9.755870   1.243920   3.179400  70.345400   8.934350  -4.338550  -0.618141  -5.869640  10.551400 -11.326700  -6.884890  -3.986220 -34.389000  26.275700  60.331400  33.856200  -0.002778  -0.006165  11.928100  -0.002022  -0.004634  28.686300   8.043880  14.344900  24.300300   0.000000  -0.003085  17.010200  -0.001096  -0.001873  28.101900   1.852270   3.463860  33.091100  -0.003699  -0.007876  22.038700  -0.001971  -0.003246  28.104500   1.852430   3.463790  33.110300  -0.006012  -0.001205  22.051400  -0.004489  -0.002849  35.828300   0.048211   0.066824  53.742700  -0.005957  -0.001976  35.792600  -0.003992   0.009164   1.660740   8.439820   3.058340   1.073840   0.154075   7.122610  -2.112820  -2.540040   2.924220   0.000000   0.000000  -0.000000   1.880330   7.319520  -5.219790  -0.192771   1.855470  -6.892540  -0.651677  -3.667250  -0.690011   0.000000   0.000000  -0.000000
  0.502474  89.601300  -0.359173  -2.194150  -6.436780  -2.588100   0.646442   3.336030   1.139090   1.229560   6.684060   2.245670   1.426500   0.273535  -0.010273   2.343640   0.553457  -0.416617  -4.341210  -0.455429   1.349900 -74.934900  17.559000  -1.276050  -2.179270  -3.695340 -12.946500  13.884400 -13.196300   9.659120  39.596000  33.695600 -63.308700 -31.784900  -0.003592   0.001550 -10.893300   0.000278  -0.014292 -25.951600   5.527050 -11.195800 -21.678200  -0.001879   0.001763 -15.173900  -0.003810   0.000747 -27.311600   0.616192  -1.190540 -28.345400  -0.006633   0.004603 -18.878000  -0.001152  -0.000606 -27.044400   0.610573  -1.193430 -27.191300  -0.001842  -0.001406 -18.109400  -0.001470  -0.002689 -27.348200   0.615649  -1.190140 -41.031800  -0.002879  -0.002345 -27.327300  -0.003178   0.001374   9.823500   1.220970   3.269610  70.340500   9.044770  -4.345870  -0.636461  -5.895640  10.577500 -11.260900  -6.867130  -3.989790 -34.442900  26.350000  60.350800  33.807800  -0.002775  -0.006134  11.903900  -0.002051  -0.004643  28.648500   8.047960  14.375500  24.271100  -0.000000  -0.003073  16.987700  -0.001139  -0.001788  28.095400   1.867090   3.492540  33.051100  -0.003721  -0.007837  22.012100  -0.001953  -0.003222  28.097500   1.867210   3.492490  33.066500  -0.005999  -0.001087  22.022200  -0.004434  -0.002830  35.815600   0.048199   0.066808  53.723600  -0.005949  -0.001959  35.779900  -0.003982   0.009144   1.672250   8.482740   3.059110   1.073730   0.080714   7.093940  -2.121410  -2.471230   2.872950   0.000000   0.000000   0.000000   1.887030   7.351400  -5.234440  -0.182198   1.850080  -6.945050  -0.662742  -3.676330  -0.707289  -0.000000   0.000000   0.000000
  0.489291  89.601300  -0.363818  -2.185710  -6.463970  -2.502670   0.634739   3.354960   1.140680   1.205430   6.721740   2.249820   1.440120   0.273303  -0.010229   2.366040   0.553106  -0.361741  -4.325320  -0.478083   1.404900 -74.916700  17.627300  -1.294030  -2.177300  -3.740020 -12.939600  13.893900 -13.203300   9.661350  39.586300  33.681500 -63.327700 -31.784700  -0.003599   0.001556 -10.893200   0.000288  -0.014301 -25.965100   5.540210 -11.213600 -21.689500  -0.001846   0.001769 -15.182600  -0.003816   0.000750 -27.315600   0.627852  -1.215410 -28.368400  -0.006620   0.004640 -18.893400  -0.001145  -0.000573 -27.043600   0.622104  -1.218370 -27.208300  -0.001821  -0.001406 -18.120700  -0.001457  -0.002668 -27.358400   0.628760  -1.214940 -41.047500  -0.002878  -0.002345 -27.337700  -0.003185   0.001387   9.866020   1.195850   3.353850  70.331000   9.165710  -4.351210  -0.656522  -5.910980  10.610300 -11.225200  -6.859600  -4.015800 -34.507700  26.440500  60.384500  33.775600  -0.002772  -0.006097  11.887800  -0.002095  -0.004654  28.602900   8.051320  14.405500  24.236200   0.000000  -0.003056  16.965300  -0.001182  -0.001704  28.089800   1.874310   3.506810  33.011200  -0.003752  -0.007789  21.985500  -0.001935  -0.003192  28.091400   1.874410   3.506770  33.022700  -0.005981  -0.000981  21.993100  -0.004371  -0.002807  35.803000   0.048114   0.066695  53.704500  -0.005939  -0.001939  35.767100  -0.003969   0.009119   1.686360   8.525660   3.059740   1.073550   0.007343   7.064110  -2.132940  -2.421620   2.822440  -0.000000   0.000000   0.000000   1.895320   7.391660  -5.248580  -0.171808   1.836300  -6.996080  -0.673938  -3.681470  -0.728594   0.000000   0.000000   0.000000
  0.474065  89.601200  -0.367851  -2.178240  -6.494570  -2.413360   0.641647   3.378890   1.163910   1.217230   6.770010   2.296330   1.435120   0.273163  -0.010212   2.357840   0.553153  -0.376645  -4.363000  -0.497061   1.392190 -74.892800  17.684500  -1.324140  -2.176180  -3.778400 -12.945300  13.891300 -13.205400   9.646220  39.581600  33.667400 -63.329500 -31.780500  -0.003594   0.001568 -10.893100   0.000295  -0.014324 -25.973000   5.544630 -11.217800 -21.695500  -0.001807   0.001777 -15.186800  -0.003822   0.000756 -27.319600   0.636130  -1.231210 -28.389100  -0.006602   0.004685 -18.907200  -0.001138  -0.000534 -27.043100   0.630274  -1.234220 -27.220600  -0.001795  -0.001406 -18.128900  -0.001439  -0.002644 -27.370300   0.637174  -1.230650 -41.065700  -0.002875  -0.002345 -27.349800  -0.003195   0.001403   9.854020   1.161270   3.376290  70.318300   9.294660  -4.329620  -0.675798  -5.844010  10.637600 -11.248200  -6.860130  -4.081110 -34.565500  26.554300  60.485200  33.784500  -0.002777  -0.006051  11.892200  -0.002154  -0.004677  28.588100   8.052330  14.412200  24.224400  -0.000032  -0.003033  16.957100  -0.001193  -0.001653  28.091800   1.861520   3.482380  33.022200  -0.003791  -0.007734  21.992800  -0.001921  -0.003158  28.093300   1.861600   3.482340  33.033200  -0.005960  -0.000942  22.000100  -0.004308  -0.002781  35.828900   0.041895   0.058199  53.743200  -0.005928  -0.001917  35.792900  -0.003954   0.009090   1.707260   8.515220   3.053240   1.073530   0.064985   7.031990  -2.155100  -2.434070   2.770070   0.000000   0.000000   0.000000   1.906640   7.437430  -5.271300  -0.162597   1.816760  -7.042380  -0.685812  -3.681180  -0.749877  -0.000000   0.000000   0.000000
